# xmcd CD database file
#
# Track frame offsets:
#	150
#	20767
#	37222
#	53940
#	74632
#	97527
#	119180
#	136942
#	159307
#	178500
#	194307
#	211717
#	244583
#	265885
#	286447
#	314742
#
# Disc length: 4531 seconds
#
# Revision: 0
# Processed by: cddbd v1.5.2PL0 Copyright (c) Steve Scherf et al.
# Submitted via: CDex 1.51
#
DISCID=f111b110
DTITLE=Jamie Cullum - The Pursuit
DYEAR=2010
DGENRE=Jazz
TTITLE0=Just One Of Those Things
TTITLE1=I'm All Over It
TTITLE2=Wheels
TTITLE3=If I Ruled the World
TTITLE4=You And Me Are Gone
TTITLE5=Don't Stop The Music
TTITLE6=Love Ain't Gonna Let You Down
TTITLE7=Mixtape
TTITLE8=I Think, I Love
TTITLE9=We Run Things
TTITLE10=Not While I'm around
TTITLE11=Music Is Through
TTITLE12=I Love This
TTITLE13=Grand Torino
TTITLE14=The Move On Song
TTITLE15=I'm All Over It - Don't Stop The Music Video
EXTD=YEAR: 2010
EXTT0=
EXTT1=
EXTT2=
EXTT3=
EXTT4=
EXTT5=
EXTT6=
EXTT7=
EXTT8=
EXTT9=
EXTT10=
EXTT11=
EXTT12=
EXTT13=
EXTT14=
EXTT15=
PLAYORDER=
